<mxfile host="Electron" modified="2023-10-20T20:12:15.224Z" agent="Mozilla/5.0 (Windows NT 10.0; Win64; x64) AppleWebKit/537.36 (KHTML, like Gecko) draw.io/22.0.3 Chrome/114.0.5735.289 Electron/25.8.4 Safari/537.36" etag="qg_7A7Fuu1DdPXQ6REyn" version="22.0.3" type="device">
  <diagram name="Page-1" id="EShkZAHhje5btMgBuGrV">
    <mxGraphModel dx="3232" dy="5766" grid="1" gridSize="10" guides="1" tooltips="1" connect="1" arrows="1" fold="1" page="1" pageScale="1" pageWidth="586" pageHeight="764" math="0" shadow="0">
      <root>
        <mxCell id="0" />
        <mxCell id="1" parent="0" />
        <mxCell id="ybrKWOprvLpRN1Z1tifF-12" value="" style="shape=hexagon;perimeter=hexagonPerimeter2;whiteSpace=wrap;html=1;fixedSize=1;rotation=90;size=100;strokeWidth=8;strokeColor=#E6FFCC;fillColor=#242424;fontColor=#ffffff;" parent="1" vertex="1">
          <mxGeometry x="-1090" y="-4360" width="430" height="380" as="geometry" />
        </mxCell>
        <mxCell id="ybrKWOprvLpRN1Z1tifF-13" value="" style="endArrow=none;dashed=1;html=1;strokeWidth=1;rounded=0;strokeColor=#CCFF99;" parent="1" edge="1">
          <mxGeometry width="50" height="50" relative="1" as="geometry">
            <mxPoint x="-920" y="-4358" as="sourcePoint" />
            <mxPoint x="-830" y="-4358" as="targetPoint" />
          </mxGeometry>
        </mxCell>
        <mxCell id="ybrKWOprvLpRN1Z1tifF-14" value="" style="endArrow=none;dashed=1;html=1;strokeWidth=1;rounded=0;exitX=0;exitY=0.75;exitDx=0;exitDy=0;entryX=0.244;entryY=0.013;entryDx=0;entryDy=0;entryPerimeter=0;strokeColor=#CCFF99;" parent="1" edge="1">
          <mxGeometry width="50" height="50" relative="1" as="geometry">
            <mxPoint x="-1060.03" y="-4293" as="sourcePoint" />
            <mxPoint x="-689.97" y="-4293.08" as="targetPoint" />
          </mxGeometry>
        </mxCell>
        <mxCell id="ybrKWOprvLpRN1Z1tifF-15" value="" style="endArrow=none;dashed=1;html=1;strokeWidth=1;rounded=0;entryX=0.244;entryY=0.013;entryDx=0;entryDy=0;entryPerimeter=0;strokeColor=#CCFF99;" parent="1" edge="1">
          <mxGeometry width="50" height="50" relative="1" as="geometry">
            <mxPoint x="-1060.03" y="-4218.5" as="sourcePoint" />
            <mxPoint x="-690.03" y="-4218.5" as="targetPoint" />
          </mxGeometry>
        </mxCell>
        <mxCell id="ybrKWOprvLpRN1Z1tifF-16" value="" style="endArrow=none;dashed=1;html=1;strokeWidth=1;rounded=0;exitX=0;exitY=0.75;exitDx=0;exitDy=0;entryX=0.244;entryY=0.013;entryDx=0;entryDy=0;entryPerimeter=0;strokeColor=#CCFF99;" parent="1" edge="1">
          <mxGeometry width="50" height="50" relative="1" as="geometry">
            <mxPoint x="-1060" y="-4128" as="sourcePoint" />
            <mxPoint x="-690" y="-4128" as="targetPoint" />
          </mxGeometry>
        </mxCell>
        <mxCell id="ybrKWOprvLpRN1Z1tifF-17" value="" style="endArrow=none;dashed=1;html=1;strokeWidth=1;rounded=0;exitX=0.749;exitY=0.997;exitDx=0;exitDy=0;entryX=0.244;entryY=0.013;entryDx=0;entryDy=0;entryPerimeter=0;exitPerimeter=0;strokeColor=#CCFF99;" parent="1" edge="1">
          <mxGeometry width="50" height="50" relative="1" as="geometry">
            <mxPoint x="-1061.93" y="-4058" as="sourcePoint" />
            <mxPoint x="-688.07" y="-4053.57" as="targetPoint" />
          </mxGeometry>
        </mxCell>
        <mxCell id="ybrKWOprvLpRN1Z1tifF-18" value="" style="endArrow=none;dashed=1;html=1;strokeWidth=1;rounded=0;strokeColor=#CCFF99;" parent="1" edge="1">
          <mxGeometry width="50" height="50" relative="1" as="geometry">
            <mxPoint x="-920" y="-3978" as="sourcePoint" />
            <mxPoint x="-830" y="-3978" as="targetPoint" />
          </mxGeometry>
        </mxCell>
        <mxCell id="ybrKWOprvLpRN1Z1tifF-19" value="" style="endArrow=none;dashed=1;html=1;strokeWidth=1;rounded=0;strokeColor=#CCFF99;" parent="1" edge="1">
          <mxGeometry width="50" height="50" relative="1" as="geometry">
            <mxPoint x="-1000" y="-4311.469999999999" as="sourcePoint" />
            <mxPoint x="-1000" y="-4018" as="targetPoint" />
          </mxGeometry>
        </mxCell>
        <mxCell id="ybrKWOprvLpRN1Z1tifF-20" value="" style="endArrow=none;dashed=1;html=1;strokeWidth=1;rounded=0;exitX=0;exitY=0.75;exitDx=0;exitDy=0;entryX=0.847;entryY=0.168;entryDx=0;entryDy=0;entryPerimeter=0;strokeColor=#CCFF99;" parent="1" target="ybrKWOprvLpRN1Z1tifF-12" edge="1">
          <mxGeometry width="50" height="50" relative="1" as="geometry">
            <mxPoint x="-749" y="-4313" as="sourcePoint" />
            <mxPoint x="-750" y="-4002" as="targetPoint" />
          </mxGeometry>
        </mxCell>
        <mxCell id="ybrKWOprvLpRN1Z1tifF-21" value="" style="endArrow=none;dashed=1;html=1;strokeWidth=1;rounded=0;exitX=0;exitY=0.75;exitDx=0;exitDy=0;strokeColor=#f1f3f4;" parent="1" edge="1">
          <mxGeometry width="50" height="50" relative="1" as="geometry">
            <mxPoint x="-920" y="-4358" as="sourcePoint" />
            <mxPoint x="-920" y="-3978" as="targetPoint" />
          </mxGeometry>
        </mxCell>
        <mxCell id="ybrKWOprvLpRN1Z1tifF-22" value="SOPQ 2324" style="text;strokeColor=none;align=center;fillColor=none;html=1;verticalAlign=middle;whiteSpace=wrap;rounded=0;strokeWidth=1;fontSize=64;fontStyle=1;fontColor=#99FF33;fontFamily=Courier New;" parent="1" vertex="1">
          <mxGeometry x="-1050" y="-4100.55" width="350" height="20" as="geometry" />
        </mxCell>
        <mxCell id="ybrKWOprvLpRN1Z1tifF-23" value="" style="endArrow=none;dashed=1;html=1;strokeWidth=1;rounded=0;exitX=0;exitY=0.75;exitDx=0;exitDy=0;entryX=0.947;entryY=0.374;entryDx=0;entryDy=0;entryPerimeter=0;strokeColor=#CCFF99;" parent="1" target="ybrKWOprvLpRN1Z1tifF-12" edge="1">
          <mxGeometry width="50" height="50" relative="1" as="geometry">
            <mxPoint x="-830" y="-4358" as="sourcePoint" />
            <mxPoint x="-829.96" y="-3983.1" as="targetPoint" />
          </mxGeometry>
        </mxCell>
        <mxCell id="ybrKWOprvLpRN1Z1tifF-25" value="F" style="text;strokeColor=none;align=center;fillColor=none;html=1;verticalAlign=middle;whiteSpace=wrap;rounded=0;strokeWidth=1;fontSize=32;fontStyle=1;fontColor=#99FF33;fontFamily=Courier New;" parent="1" vertex="1">
          <mxGeometry x="-1030.03" y="-4233.5" width="30" height="20" as="geometry" />
        </mxCell>
        <mxCell id="ybrKWOprvLpRN1Z1tifF-26" value="G" style="text;strokeColor=none;align=center;fillColor=none;html=1;verticalAlign=middle;whiteSpace=wrap;rounded=0;strokeWidth=1;fontSize=32;fontStyle=1;fontColor=#99FF33;fontFamily=Courier New;" parent="1" vertex="1">
          <mxGeometry x="-760" y="-4233.5" width="30" height="20" as="geometry" />
        </mxCell>
        <mxCell id="ybrKWOprvLpRN1Z1tifF-27" value="" style="endArrow=classic;html=1;rounded=0;strokeColor=#B3FF66;strokeWidth=4;" parent="1" edge="1">
          <mxGeometry width="50" height="50" relative="1" as="geometry">
            <mxPoint x="-770" y="-4204" as="sourcePoint" />
            <mxPoint x="-710" y="-4204" as="targetPoint" />
          </mxGeometry>
        </mxCell>
        <mxCell id="ybrKWOprvLpRN1Z1tifF-28" value="" style="endArrow=classic;html=1;rounded=0;strokeColor=#FF0000;strokeWidth=4;" parent="1" edge="1">
          <mxGeometry width="50" height="50" relative="1" as="geometry">
            <mxPoint x="-875.53" y="-4258" as="sourcePoint" />
            <mxPoint x="-875.53" y="-4318" as="targetPoint" />
          </mxGeometry>
        </mxCell>
        <mxCell id="ybrKWOprvLpRN1Z1tifF-29" value="Q" style="text;strokeColor=none;align=center;fillColor=none;html=1;verticalAlign=middle;whiteSpace=wrap;rounded=0;strokeWidth=1;fontSize=32;fontStyle=1;fontColor=#FF0000;fontFamily=Courier New;" parent="1" vertex="1">
          <mxGeometry x="-870" y="-4298" width="30" height="20" as="geometry" />
        </mxCell>
        <mxCell id="ybrKWOprvLpRN1Z1tifF-30" value="" style="endArrow=classic;html=1;rounded=0;strokeColor=#B3FF66;strokeWidth=4;" parent="1" edge="1">
          <mxGeometry width="50" height="50" relative="1" as="geometry">
            <mxPoint x="-1045.03" y="-4204" as="sourcePoint" />
            <mxPoint x="-985.03" y="-4204" as="targetPoint" />
          </mxGeometry>
        </mxCell>
        <mxCell id="ybrKWOprvLpRN1Z1tifF-24" value="" style="shape=mxgraph.pid.vessels.reactor;html=1;pointerEvents=1;align=center;verticalLabelPosition=bottom;verticalAlign=top;dashed=0;rotation=-90;strokeWidth=3;fillColor=#232324;fontColor=#ffffff;strokeColor=#99FF33;" parent="1" vertex="1">
          <mxGeometry x="-935.41" y="-4310.550000000001" width="110.76" height="210" as="geometry" />
        </mxCell>
      </root>
    </mxGraphModel>
  </diagram>
</mxfile>
